<svg xmlns="http://www.w3.org/2000/svg" xmlns:svg="http://www.w3.org/2000/svg" xmlns:xlink="http://www.w3.org/1999/xlink" version="1.0" height="845pt" width="1300.2323993682862pt" viewBox="20 367 1308.2323993682862 851" ><defs><style type="text/css">
            @font-face {
                font-family: 'noto_regular';
                src: url('https://app.creately.com/diagram/assets/fonts/noto/noto-regular.woff') format('woff'),
                     url('https://app.creately.com/diagram/assets/fonts/noto/noto-regular.woff2') format('woff2');
                font-weight: normal;
                font-style: normal;
            }
        p {
            margin: 0;
        }
        </style></defs><defs><style>
            span{ display: inline-block; }
        </style></defs><g id="8eu3wte2li"><g transform="translate(249.5 534.2)"><linearGradient id="d7533" x1="38.50369566679001" y1="-28.494985342025757" x2="38.50369566679001" y2="56.989970684051514" gradientUnits="userSpaceOnUse"><stop offset="0%" stop-color="rgba(255,255,255,1)"/><stop offset="100%" stop-color="rgba(156,201,37,1)"/></linearGradient><rect x="0" y="0" width="77.00739133358002" height="56.989970684051514" fill="url(#d7533)" stroke="#045f20" stroke-width="2" stroke-linecap="round" stroke-linejoin="round"/></g><g transform="translate(260.00369566679, 538.1949853420258) rotate(0, 28, 24.5)" width="56" height="49"><text text-decoration="none" x="28" fill="rgb(4, 95, 32)" font-weight="bold" font-size="9pt" font-family="Arial"  y="13"></text><text text-decoration="none" x="4" fill="rgb(4, 95, 32)" font-weight="bold" font-size="9pt" font-family="Arial"  y="31">Student</text><text text-decoration="none" x="52" fill="rgb(4, 95, 32)" font-weight="bold" font-size="9pt" font-family="Arial"  y="31"></text><text text-decoration="none" x="28" fill="#4b4b4b" font-size="10pt" font-family="noto_regular"  y="53"></text></g></g><g id="1y5287zkm9"><g transform="translate(404 533)"><path d="M 95.13145637512207,23.02832892537117 L 47.94323396682739,45.98355204463005 L 0.7550115585327148,23.02832892537117 L 47.94323396682739,0.21931741833686827 Z" fill="rgb(200, 233, 231)" stroke="rgb(22, 188, 180)" stroke-width="2" vector-effect="non-scaling-stroke" stroke-dasharray=""/></g><g transform="translate(409.1214622641509, 538.5680379746835) rotate(0, 0, 0)" width="63" height="19"><text text-decoration="none" x="0" fill="#143872" font-weight="bold" font-size="9pt" font-family="Arial"  y="17">Selected&#160;</text><text text-decoration="none" x="54" fill="#4b4b4b" font-size="10pt" font-family="noto_regular"  y="17"></text></g></g><g id="98hzt9vbrj"><g transform="translate(608.05 533)"><linearGradient id="62a40" x1="38.50558948516846" y1="-19.00750958919525" x2="38.50558948516846" y2="38.0150191783905" gradientUnits="userSpaceOnUse"><stop offset="0%" stop-color="rgba(255,255,255,1)"/><stop offset="100%" stop-color="rgba(198,223,156,1)"/></linearGradient><path d="M 0,0 L 77.01117897033691,0 L 77.01117897033691,38.0150191783905 L 0,38.0150191783905 L 0,0 Z M 5,5 L 72.01117897033691,5 L 72.01117897033691,33.0150191783905 L 5,33.0150191783905 L 5,5 Z" fill="url(#62a40)" stroke="#588528" stroke-width="2" stroke-linecap="round" stroke-linejoin="round"/></g><g transform="translate(624.5555894851684, 542.5075095891953) rotate(0, 22, 9.5)" width="44" height="19"><text text-decoration="none" x="2" fill="rgb(0, 107, 14)" font-weight="bold" font-size="9pt" font-family="Arial"  y="17">Admin</text><text text-decoration="none" x="42" fill="#4b4b4b" font-size="10pt" font-family="noto_regular"  y="17"></text></g></g><g id="sdjerwkffx"><g transform="translate(758.95 533)"><path d="M 76.29451489448547,23.028621822595596 L 38.45001345872879,45.984136909246445 L 0.6055120229721069,23.028621822595596 L 38.45001345872879,0.21932020783424377 Z" fill="rgb(200, 233, 231)" stroke="rgb(0, 169, 158)" stroke-width="2" vector-effect="non-scaling-stroke" stroke-dasharray=""/><path d="M 70.2393946647644,23.028621822595596 L 38.45001345872879,42.401906847953796 L 6.055120229721069,23.028621822595596 L 38.45001345872879,3.6553367972373962 Z" fill="rgb(200, 233, 231)" stroke="rgb(0, 169, 158)" stroke-width="2" vector-effect="non-scaling-stroke" stroke-dasharray=""/></g><g transform="translate(772.9248427672957, 538.5680379746835) rotate(0, 0, 0)" width="17" height="19"><text text-decoration="none" x="0" fill="#000000" font-weight="bold" font-size="9pt" font-family="Arial"  y="17">of&#160;</text><text text-decoration="none" x="15" fill="#4b4b4b" font-size="10pt" font-family="noto_regular"  y="17"></text></g></g><g id="1v0mjo1gpz"><g transform="translate(739.95 656.45)"><linearGradient id="8a715" x1="62.51071321964264" y1="-19.00750958919525" x2="62.51071321964264" y2="38.0150191783905" gradientUnits="userSpaceOnUse"><stop offset="0%" stop-color="rgba(255,255,255,1)"/><stop offset="100%" stop-color="rgba(198,223,156,1)"/></linearGradient><path d="M 0,0 L 125.02142643928528,0 L 125.02142643928528,38.0150191783905 L 0,38.0150191783905 L 0,0 Z M 5,5 L 120.02142643928528,5 L 120.02142643928528,33.0150191783905 L 5,33.0150191783905 L 5,5 Z" fill="url(#8a715)" stroke="#588528" stroke-width="2" stroke-linecap="round" stroke-linejoin="round"/></g><g transform="translate(749.9607132196427, 665.9575095891953) rotate(0, 52.5, 9.5)" width="105" height="19"><text text-decoration="none" x="7" fill="rgb(0, 107, 14)" font-weight="bold" font-size="9pt" font-family="Arial"  y="17">Rooms_categoy</text><text text-decoration="none" x="98" fill="#4b4b4b" font-size="10pt" font-family="noto_regular"  y="17"></text></g></g><g id="2a22bjqifz"><g transform="translate(360 660)"><path d="M 106.04818654060364,23.02832892537117 L 53.444919407367706,45.98355204463005 L 0.8416522741317749,23.02832892537117 L 53.444919407367706,0.21931741833686827 Z" fill="rgb(200, 233, 231)" stroke="rgb(22, 188, 180)" stroke-width="2" vector-effect="non-scaling-stroke" stroke-dasharray=""/></g><g transform="translate(364.04952830188677, 665.5680379746835) rotate(0, 0, 0)" width="74" height="19"><text text-decoration="none" x="0" fill="#143872" font-weight="bold" font-size="9pt" font-family="Arial"  y="17">Departure&#160;</text><text text-decoration="none" x="64" fill="#4b4b4b" font-size="10pt" font-family="noto_regular"  y="17"></text></g></g><g id="7ewq43fduf"><g transform="translate(507.1 656.45)"><linearGradient id="62a40" x1="38.50558948516846" y1="-19.00750958919525" x2="38.50558948516846" y2="38.0150191783905" gradientUnits="userSpaceOnUse"><stop offset="0%" stop-color="rgba(255,255,255,1)"/><stop offset="100%" stop-color="rgba(198,223,156,1)"/></linearGradient><path d="M 0,0 L 77.01117897033691,0 L 77.01117897033691,38.0150191783905 L 0,38.0150191783905 L 0,0 Z M 5,5 L 72.01117897033691,5 L 72.01117897033691,33.0150191783905 L 5,33.0150191783905 L 5,5 Z" fill="url(#62a40)" stroke="#588528" stroke-width="2" stroke-linecap="round" stroke-linejoin="round"/></g><g transform="translate(523.1055894851685, 665.9575095891953) rotate(0, 22.5, 9.5)" width="45" height="19"><text text-decoration="none" x="2.5" fill="rgb(0, 107, 14)" font-weight="bold" font-size="9pt" font-family="Arial"  y="17">Rooms</text><text text-decoration="none" x="42.5" fill="#4b4b4b" font-size="10pt" font-family="noto_regular"  y="17"></text></g></g><g id="566n4n0csq"><g transform="translate(619.45 656.45)"><path d="M 81.00404691696167,23.028621822595596 L 40.8234680891037,45.984136909246445 L 0.6428892612457275,23.028621822595596 L 40.8234680891037,0.21932020783424377 Z" fill="rgb(200, 233, 231)" stroke="rgb(0, 169, 158)" stroke-width="2" vector-effect="non-scaling-stroke" stroke-dasharray=""/><path d="M 74.5751543045044,23.028621822595596 L 40.8234680891037,42.401906847953796 L 6.428892612457275,23.028621822595596 L 40.8234680891037,3.6553367972373962 Z" fill="rgb(200, 233, 231)" stroke="rgb(0, 169, 158)" stroke-width="2" vector-effect="non-scaling-stroke" stroke-dasharray=""/></g><g transform="translate(634.9334905660378, 662.0180379746836) rotate(0, 0, 0)" width="17" height="19"><text text-decoration="none" x="0" fill="#000000" font-weight="bold" font-size="9pt" font-family="Arial"  y="17">of&#160;</text><text text-decoration="none" x="15" fill="#4b4b4b" font-size="10pt" font-family="noto_regular"  y="17"></text></g></g><g id="8e07dqrhac"><g transform="translate(630 780)"><path d="M 81.00370144844055,23.028520435094833 L 40.82329398393631,45.98393445611 L 0.6428865194320679,23.028520435094833 L 40.82329398393631,0.2193192422389984 Z" fill="rgb(200, 233, 231)" stroke="rgb(0, 169, 158)" stroke-width="2" vector-effect="non-scaling-stroke" stroke-dasharray=""/><path d="M 74.57483625411987,23.028520435094833 L 40.82329398393631,42.40172016620636 L 6.428865194320679,23.028520435094833 L 40.82329398393631,3.655320703983307 Z" fill="rgb(200, 233, 231)" stroke="rgb(0, 169, 158)" stroke-width="2" vector-effect="non-scaling-stroke" stroke-dasharray=""/></g><g transform="translate(640.3223270440252, 785.5680379746835) rotate(0, 0, 0)" width="32" height="19"><text text-decoration="none" x="0" fill="#000000" font-weight="bold" font-size="9pt" font-family="Arial"  y="17">own&#160;</text><text text-decoration="none" x="28" fill="#4b4b4b" font-size="10pt" font-family="noto_regular"  y="17"></text></g></g><g id="1ytmgvx96o"><g transform="translate(770 780)"><linearGradient id="9c35d" x1="38.50558948516846" y1="-19.00750958919525" x2="38.50558948516846" y2="38.0150191783905" gradientUnits="userSpaceOnUse"><stop offset="0%" stop-color="rgba(255,255,255,1)"/><stop offset="100%" stop-color="rgba(156,201,37,1)"/></linearGradient><rect x="0" y="0" width="77.01117897033691" height="38.0150191783905" fill="url(#9c35d)" stroke="#045f20" stroke-width="2" stroke-linecap="round" stroke-linejoin="round"/></g><g transform="translate(787.0055894851685, 789.5075095891953) rotate(0, 21.5, 9.5)" width="43" height="19"><text text-decoration="none" x="2.5" fill="rgb(4, 95, 32)" font-weight="bold" font-size="9pt" font-family="Arial"  y="17">Hostel</text><text text-decoration="none" x="40.5" fill="#4b4b4b" font-size="10pt" font-family="noto_regular"  y="17"></text></g></g><g id="2halys2hak"><g transform="translate(247.5 632.3)"><path d="M 95.13145637512207,23.02832892537117 L 47.94323396682739,45.98355204463005 L 0.7550115585327148,23.02832892537117 L 47.94323396682739,0.21931741833686827 Z" fill="rgb(200, 233, 231)" stroke="rgb(22, 188, 180)" stroke-width="2" vector-effect="non-scaling-stroke" stroke-dasharray=""/></g><g transform="translate(251.2319182389937, 637.8680379746835) rotate(0, 0, 0)" width="65" height="19"><text text-decoration="none" x="0" fill="#143872" font-weight="bold" font-size="9pt" font-family="Arial"  y="17">Payment&#160;</text><text text-decoration="none" x="57" fill="#4b4b4b" font-size="10pt" font-family="noto_regular"  y="17"></text></g></g><g id="11jj9rwlea"><g transform="translate(245.25 787)"><linearGradient id="9c35d" x1="38.50558948516846" y1="-19.00750958919525" x2="38.50558948516846" y2="38.0150191783905" gradientUnits="userSpaceOnUse"><stop offset="0%" stop-color="rgba(255,255,255,1)"/><stop offset="100%" stop-color="rgba(156,201,37,1)"/></linearGradient><rect x="0" y="0" width="77.01117897033691" height="38.0150191783905" fill="url(#9c35d)" stroke="#045f20" stroke-width="2" stroke-linecap="round" stroke-linejoin="round"/></g><g transform="translate(268.25558948516846, 796.5075095891953) rotate(0, 15.5, 9.5)" width="31" height="19"><text text-decoration="none" x="2" fill="rgb(4, 95, 32)" font-weight="bold" font-size="9pt" font-family="Arial"  y="17">staff</text><text text-decoration="none" x="29" fill="#4b4b4b" font-size="10pt" font-family="noto_regular"  y="17"></text></g></g><g id="5wgchujmwh"><g transform="translate(245.25 889.5)"><path d="M 95.13145637512207,23.02832892537117 L 47.94323396682739,45.98355204463005 L 0.7550115585327148,23.02832892537117 L 47.94323396682739,0.21931741833686827 Z" fill="rgb(200, 233, 231)" stroke="rgb(0, 169, 158)" stroke-width="2" vector-effect="non-scaling-stroke" stroke-dasharray=""/><path d="M 87.58134078979492,23.02832892537117 L 47.94323396682739,42.40136754512787 L 7.550115585327148,23.02832892537117 L 47.94323396682739,3.6552903056144714 Z" fill="rgb(200, 233, 231)" stroke="rgb(0, 169, 158)" stroke-width="2" vector-effect="non-scaling-stroke" stroke-dasharray=""/></g><g transform="translate(261.4481132075472, 895.0680379746835) rotate(0, 0, 0)" width="28" height="19"><text text-decoration="none" x="0" fill="#000000" font-weight="bold" font-size="9pt" font-family="Arial"  y="17">has&#160;</text><text text-decoration="none" x="24" fill="#4b4b4b" font-size="10pt" font-family="noto_regular"  y="17"></text></g></g><g id="2jw9fsznsn"><g transform="translate(413.5 889.5)"><linearGradient id="62a40" x1="38.50558948516846" y1="-19.00750958919525" x2="38.50558948516846" y2="38.0150191783905" gradientUnits="userSpaceOnUse"><stop offset="0%" stop-color="rgba(255,255,255,1)"/><stop offset="100%" stop-color="rgba(198,223,156,1)"/></linearGradient><path d="M 0,0 L 77.01117897033691,0 L 77.01117897033691,38.0150191783905 L 0,38.0150191783905 L 0,0 Z M 5,5 L 72.01117897033691,5 L 72.01117897033691,33.0150191783905 L 5,33.0150191783905 L 5,5 Z" fill="url(#62a40)" stroke="#588528" stroke-width="2" stroke-linecap="round" stroke-linejoin="round"/></g><g transform="translate(441.50558948516846, 899.0075095891953) rotate(0, 10.5, 9.5)" width="21" height="19"><text text-decoration="none" x="0.5" fill="rgb(0, 107, 14)" font-weight="bold" font-size="9pt" font-family="Arial"  y="17">Bill</text><text text-decoration="none" x="20.5" fill="#4b4b4b" font-size="10pt" font-family="noto_regular"  y="17"></text></g></g><g id="hzadta1qhh"><g transform="translate(215 405)"><ellipse cx="37.53391492366791" cy="26.617103576660156" rx="37.53391492366791" ry="26.617103576660156" fill="rgba(203,169,215,1)" stroke="#91278f" stroke-width="1" stroke-linecap="round" stroke-linejoin="round"/></g><g transform="translate(225.0339149236679, 422.11710357666016) rotate(0, 27.5, 9.5)" width="55" height="19"><text text-decoration="none" x="3.5" fill="rgb(62, 20, 78)" font-weight="bold" font-size="9pt" font-family="Arial"  y="17">Address</text><text text-decoration="none" x="51.5" fill="#4b4b4b" font-size="10pt" font-family="noto_regular"  y="17"></text></g></g><g id="2aqosxiqoy"><g transform="translate(294.5 434.5)"><ellipse cx="25.674119889736176" cy="14.156584203243256" rx="25.674119889736176" ry="14.156584203243256" fill="rgba(203,169,215,1)" stroke="#91278f" stroke-width="1" stroke-linecap="round" stroke-linejoin="round"/></g><g transform="translate(301.6741198897362, 439.15658420324326) rotate(0, 18.5, 9.5)" width="37" height="19"><text text-decoration="none" x="1.5" fill="rgb(62, 20, 78)" font-weight="bold" font-size="9pt" font-family="Arial"  y="17">email</text><text text-decoration="none" x="35.5" fill="#4b4b4b" font-size="10pt" font-family="noto_regular"  y="17"></text></g></g><g id="3lt8n2io76"><g transform="translate(75 550)"><ellipse cx="44.08977922797203" cy="17.494809955358505" rx="44.08977922797203" ry="17.494809955358505" fill="rgba(203,169,215,1)" stroke="#91278f" stroke-width="1" stroke-linecap="round" stroke-linejoin="round"/></g><g transform="translate(94.08977922797203, 557.9948099553585) rotate(0, 25, 9.5)" width="50" height="19"><text text-decoration="underline" x="3" fill="rgb(62, 20, 78)" font-weight="bold" font-size="9pt" font-family="Arial"  y="17">stud_Id</text><text text-decoration="none" x="47" fill="#4b4b4b" font-size="10pt" font-family="noto_regular"  y="17"></text></g></g><g id="6l9wl8q7gv"><g><path d="M 314.5,464.5 L 289.5,534.2" fill="none" stroke="#5e5ca7" stroke-width="1.5" stroke-linecap="round" stroke-linejoin="round"/></g></g><g id="1n9w59ucoy"><g><path d="M 265,460 L 289.5,534.2" fill="none" stroke="#5e5ca7" stroke-width="1.5" stroke-linecap="round" stroke-linejoin="round"/></g></g><g id="309ojs0d9f"><g><path d="M 165,565 L 205.90324676036835,565 L 205.90324676036835,564.6 L 205.90324676036835,564.2 L 249.5,564.2" fill="none" stroke="#5e5ca7" stroke-width="1.5" stroke-linecap="round" stroke-linejoin="round"/></g></g><g id="18qaspm41f"><g transform="translate(150.85 638.95)"><ellipse cx="28.224504113197327" cy="12.713333487510681" rx="28.224504113197327" ry="12.713333487510681" fill="rgba(203,169,215,1)" stroke="#91278f" stroke-width="1" stroke-linecap="round" stroke-linejoin="round"/></g><g transform="translate(163.57450411319732, 642.1633334875107) rotate(0, 15.5, 9.5)" width="31" height="19"><text text-decoration="none" x="2" fill="rgb(62, 20, 78)" font-weight="bold" font-size="9pt" font-family="Arial"  y="17">date</text><text text-decoration="none" x="29" fill="#4b4b4b" font-size="10pt" font-family="noto_regular"  y="17"></text></g></g><g id="1f7hfybqkd"><g><path d="M 205.85,653.95 L 247.5,652.3" fill="none" stroke="#5e5ca7" stroke-width="1.5" stroke-linecap="round" stroke-linejoin="round"/></g></g><g id="afmbpvk728"><g transform="translate(118.69999999999999 747) rotate(2.1730354909263632e-15)"><ellipse cx="46.86262005567551" cy="22.553353875875473" rx="46.86262005567551" ry="22.553353875875473" fill="rgba(203,169,215,1)" stroke="#91278f" stroke-width="1" stroke-linecap="round" stroke-linejoin="round"/></g><g transform="translate(139.5626200556755, 760.0533538758755) rotate(0, 26, 9.5)" width="52" height="19"><text text-decoration="underline" x="3.5" fill="rgb(62, 20, 78)" font-weight="bold" font-size="9pt" font-family="Arial"  y="17">Staff_id</text><text text-decoration="none" x="48.5" fill="#4b4b4b" font-size="10pt" font-family="noto_regular"  y="17"></text></g></g><g id="7fbg2oifan"><g transform="translate(55 786.3)"><ellipse cx="52.49240207672119" cy="25.014325261116028" rx="52.49240207672119" ry="25.014325261116028" fill="rgba(203,169,215,1)" stroke="#91278f" stroke-width="1" stroke-linecap="round" stroke-linejoin="round"/></g><g transform="translate(87.99240207672119, 801.814325261116) rotate(0, 19.5, 9.5)" width="39" height="19"><text text-decoration="none" x="1.5" fill="rgb(62, 20, 78)" font-weight="bold" font-size="9pt" font-family="Arial"  y="17">Name</text><text text-decoration="none" x="37.5" fill="#4b4b4b" font-size="10pt" font-family="noto_regular"  y="17"></text></g></g><g id="5jhm9ivfvs"><g><path d="M 213.7,772 L 245.25,807" fill="none" stroke="#5e5ca7" stroke-width="1.5" stroke-linecap="round" stroke-linejoin="round"/></g></g><g id="7anv8fysrk"><g><path d="M 160,811.3 L 245.25,807" fill="none" stroke="#5e5ca7" stroke-width="1.5" stroke-linecap="round" stroke-linejoin="round"/></g></g><g id="5ab7brg1sh"><g transform="translate(25 835)"><ellipse cx="62.06628054380417" cy="28.64897918701172" rx="62.06628054380417" ry="28.64897918701172" fill="rgba(203,169,215,1)" stroke="#91278f" stroke-width="1" stroke-linecap="round" stroke-linejoin="round"/></g><g transform="translate(59.56628054380417, 854.1489791870117) rotate(0, 27.5, 9.5)" width="55" height="19"><text text-decoration="none" x="3.5" fill="rgb(62, 20, 78)" font-weight="bold" font-size="9pt" font-family="Arial"  y="17">Address</text><text text-decoration="none" x="51.5" fill="#4b4b4b" font-size="10pt" font-family="noto_regular"  y="17"></text></g></g><g id="64hkqbjny1"><g><path d="M 150,865 L 245.25,807" fill="none" stroke="#5e5ca7" stroke-width="1.5" stroke-linecap="round" stroke-linejoin="round"/></g></g><g id="1xav5bvree"><g transform="translate(349.5 812.5)"><ellipse cx="28.690565824508667" cy="14.986756056547165" rx="28.690565824508667" ry="14.986756056547165" fill="rgba(203,169,215,1)" stroke="#91278f" stroke-width="1" stroke-linecap="round" stroke-linejoin="round"/></g><g transform="translate(358.19056582450867, 817.9867560565472) rotate(0, 20, 9.5)" width="40" height="19"><text text-decoration="underline" x="1.5" fill="rgb(62, 20, 78)" font-weight="bold" font-size="9pt" font-family="Arial"  y="17">bill_id</text><text text-decoration="none" x="38.5" fill="#4b4b4b" font-size="10pt" font-family="noto_regular"  y="17"></text></g></g><g id="1y0xuezi6w"><g transform="translate(363.9 747) rotate(2.5286398516247064e-15)"><ellipse cx="40.257887840270996" cy="22.553353875875473" rx="40.257887840270996" ry="22.553353875875473" fill="rgba(203,169,215,1)" stroke="#91278f" stroke-width="1" stroke-linecap="round" stroke-linejoin="round"/></g><g transform="translate(374.157887840271, 760.0533538758755) rotate(0, 30, 9.5)" width="60" height="19"><text text-decoration="none" x="3.5" fill="rgb(62, 20, 78)" font-weight="bold" font-size="9pt" font-family="Arial"  y="17">amounts</text><text text-decoration="none" x="56.5" fill="#4b4b4b" font-size="10pt" font-family="noto_regular"  y="17"></text></g></g><g id="asz78qp3rx"><g><path d="M 394.5,837.5 L 453.5,889.5" fill="none" stroke="#5e5ca7" stroke-width="1.5" stroke-linecap="round" stroke-linejoin="round"/></g></g><g id="81tytnye44"><g><path d="M 413.9,792 L 453.5,889.5" fill="none" stroke="#5e5ca7" stroke-width="1.5" stroke-linecap="round" stroke-linejoin="round"/></g></g><g id="242j2l7b95"><g transform="translate(515.45 823.5)"><ellipse cx="30.57796886563301" cy="14.986690700054169" rx="30.57796886563301" ry="14.986690700054169" fill="rgba(203,169,215,1)" stroke="#91278f" stroke-width="1" stroke-linecap="round" stroke-linejoin="round"/></g><g transform="translate(530.527968865633, 828.9866907000542) rotate(0, 15.5, 9.5)" width="31" height="19"><text text-decoration="none" x="2" fill="rgb(62, 20, 78)" font-weight="bold" font-size="9pt" font-family="Arial"  y="17">type</text><text text-decoration="none" x="29" fill="#4b4b4b" font-size="10pt" font-family="noto_regular"  y="17"></text></g></g><g id="3oljh2vz7n"><g><path d="M 515.45,838.5 L 453.5,889.5" fill="none" stroke="#5e5ca7" stroke-width="1.5" stroke-linecap="round" stroke-linejoin="round"/></g></g><g id="1fe802fvg3"><g transform="translate(526.45 893)"><ellipse cx="30.57796886563301" cy="14.986690700054169" rx="30.57796886563301" ry="14.986690700054169" fill="rgba(203,169,215,1)" stroke="#91278f" stroke-width="1" stroke-linecap="round" stroke-linejoin="round"/></g><g transform="translate(541.527968865633, 898.4866907000542) rotate(0, 15.5, 9.5)" width="31" height="19"><text text-decoration="none" x="2" fill="rgb(62, 20, 78)" font-weight="bold" font-size="9pt" font-family="Arial"  y="17">date</text><text text-decoration="none" x="29" fill="#4b4b4b" font-size="10pt" font-family="noto_regular"  y="17"></text></g></g><g id="cbbsn30izm"><g><path d="M 488.5,909.5 L 507.72557792663576,909.5 L 507.72557792663576,908.75 L 507.72557792663576,908 L 526.45,908" fill="none" stroke="#5e5ca7" stroke-width="1.5" stroke-linecap="round" stroke-linejoin="round"/></g></g><g id="259a2m8dkq"><g transform="translate(565.05 455) rotate(3.131623247687842e-15)"><ellipse cx="32.506368577480316" cy="22.553353875875473" rx="32.506368577480316" ry="22.553353875875473" fill="rgba(203,169,215,1)" stroke="#91278f" stroke-width="1" stroke-linecap="round" stroke-linejoin="round"/></g><g transform="translate(543.5563685774803, 468.0533538758755) rotate(0, 54, 9.5)" width="108" height="19"><text text-decoration="none" x="7" fill="rgb(62, 20, 78)" font-weight="bold" font-size="9pt" font-family="Arial"  y="17">Student_details</text><text text-decoration="none" x="101" fill="#4b4b4b" font-size="10pt" font-family="noto_regular"  y="17"></text></g></g><g id="1b8powbqvm"><g transform="translate(845 435)"><path d="M NaN,NaN L NaN,NaN L NaN,NaN L NaN,NaN Z" fill="rgb(246, 246, 246)" stroke="rgb(98, 98, 98)" stroke-width="1.5" vector-effect="non-scaling-stroke" stroke-dasharray="10 7"/></g></g><g id="2pt0h0r2zn"><g transform="translate(567.7 504)"><path d="M 0.1104956865310669,NaN L 35.24812400341034,NaN L 35.24812400341034,NaN L 0.1104956865310669,NaN Z" fill="rgb(203, 169, 215)" stroke="rgb(145, 39, 143)" stroke-width="1" vector-effect="non-scaling-stroke" stroke-dasharray=""/></g></g><g id="2fdr8s50vq"><g><path d="M 648.05,533 L 615.05,495" fill="none" stroke="#5e5ca7" stroke-width="1.5" stroke-linecap="round" stroke-linejoin="round"/></g></g><g id="49p8krhdg5"><g transform="translate(750 440) rotate(-2.3954032165572663e-15)"><ellipse cx="42.488774955272675" cy="22.553353875875473" rx="42.488774955272675" ry="22.553353875875473" fill="rgba(203,169,215,1)" stroke="#91278f" stroke-width="1" stroke-linecap="round" stroke-linejoin="round"/></g><g transform="translate(761.9887749552727, 453.0533538758755) rotate(0, 30.5, 9.5)" width="61" height="19"><text text-decoration="none" x="3" fill="rgb(62, 20, 78)" font-weight="bold" font-size="9pt" font-family="Arial"  y="17">Mess_Bill</text><text text-decoration="none" x="58" fill="#4b4b4b" font-size="10pt" font-family="noto_regular"  y="17"></text></g></g><g id="4e5bb687y9"><g transform="translate(601.35 410)"><ellipse cx="49.996574729681015" cy="26.617103576660156" rx="49.996574729681015" ry="26.617103576660156" fill="rgba(203,169,215,1)" stroke="#91278f" stroke-width="1" stroke-linecap="round" stroke-linejoin="round"/></g><g transform="translate(609.846574729681, 427.11710357666016) rotate(0, 41.5, 9.5)" width="83" height="19"><text text-decoration="none" x="5" fill="rgb(62, 20, 78)" font-weight="bold" font-size="9pt" font-family="Arial"  y="17">staff_details</text><text text-decoration="none" x="78" fill="#4b4b4b" font-size="10pt" font-family="noto_regular"  y="17"></text></g></g><g id="1wx05wn4a0"><g><path d="M 651.35,465 L 648.05,533" fill="none" stroke="#5e5ca7" stroke-width="1.5" stroke-linecap="round" stroke-linejoin="round"/></g></g><g id="7is7no5jxx"><g><path d="M 750,465 L 648.05,533" fill="none" stroke="#5e5ca7" stroke-width="1.5" stroke-linecap="round" stroke-linejoin="round"/></g></g><g id="1xp36qmikn"><g transform="translate(715 370)"><ellipse cx="54.98729330301285" cy="24.99911543726921" rx="54.98729330301285" ry="24.99911543726921" fill="rgba(203,169,215,1)" stroke="#91278f" stroke-width="1" stroke-linecap="round" stroke-linejoin="round"/></g><g transform="translate(724.9872933030128, 385.4991154372692) rotate(0, 45, 9.5)" width="90" height="19"><text text-decoration="none" x="5" fill="rgb(62, 20, 78)" font-weight="bold" font-size="9pt" font-family="Arial"  y="17">Room_details</text><text text-decoration="none" x="85" fill="#4b4b4b" font-size="10pt" font-family="noto_regular"  y="17"></text></g></g><g id="1itbyh1a0m"><g><path d="M 735,415 L 648.05,533" fill="none" stroke="#5e5ca7" stroke-width="1.5" stroke-linecap="round" stroke-linejoin="round"/></g></g><g id="at8eykeqia"><g transform="translate(727.3 494.45)"><path d="M 0.04527004808187485,NaN L 14.441145338118076,NaN L 14.441145338118076,NaN L 0.04527004808187485,NaN Z" fill="rgb(246, 246, 246)" stroke="rgb(98, 98, 98)" stroke-width="1.5" vector-effect="non-scaling-stroke" stroke-dasharray="10 7"/></g></g><g id="2f4x6lfqh1"><g transform="translate(911.15 713.4)"><ellipse cx="28.279073029756546" cy="22.91544708609581" rx="28.279073029756546" ry="22.91544708609581" fill="rgba(203,169,215,1)" stroke="#91278f" stroke-width="1" stroke-linecap="round" stroke-linejoin="round"/></g><g transform="translate(916.9290730297565, 711.8154470860958) rotate(0, 22.5, 24.5)" width="45" height="49"><text text-decoration="none" x="19" fill="rgb(62, 20, 78)" font-weight="bold" font-size="9pt" font-family="Arial"  y="13">4&#160;</text><text text-decoration="none" x="3.5" fill="rgb(62, 20, 78)" font-weight="bold" font-size="9pt" font-family="Arial"  y="31">Seater</text><text text-decoration="none" x="41.5" fill="rgb(62, 20, 78)" font-weight="bold" font-size="9pt" font-family="Arial"  y="31"></text><text text-decoration="none" x="22.5" fill="#4b4b4b" font-size="10pt" font-family="noto_regular"  y="53"></text></g></g><g id="20ekl1a7w1"><g transform="translate(939.6999999999999 783.5)"><path d="M 0.11304518580436707,NaN L 36.061414271593094,NaN L 36.061414271593094,NaN L 0.11304518580436707,NaN Z" fill="rgb(246, 246, 246)" stroke="rgb(98, 98, 98)" stroke-width="1.5" vector-effect="non-scaling-stroke" stroke-dasharray="10 7"/></g></g><g id="5873b4qex6"><g transform="translate(825.7 587.1)"><ellipse cx="28.690803617239" cy="14.98688068985939" rx="28.690803617239" ry="14.98688068985939" fill="rgba(203,169,215,1)" stroke="#91278f" stroke-width="1" stroke-linecap="round" stroke-linejoin="round"/></g><g transform="translate(836.890803617239, 592.5868806898594) rotate(0, 17.5, 9.5)" width="35" height="19"><text text-decoration="none" x="2" fill="rgb(62, 20, 78)" font-weight="bold" font-size="9pt" font-family="Arial"  y="17">Cube</text><text text-decoration="none" x="33" fill="#4b4b4b" font-size="10pt" font-family="noto_regular"  y="17"></text></g></g><g id="1c40aa8xgz"><g transform="translate(925 655)"><ellipse cx="30.5783571600914" cy="14.98688068985939" rx="30.5783571600914" ry="14.98688068985939" fill="rgba(203,169,215,1)" stroke="#91278f" stroke-width="1" stroke-linecap="round" stroke-linejoin="round"/></g><g transform="translate(927.0783571600914, 660.4868806898594) rotate(0, 28.5, 9.5)" width="57" height="19"><text text-decoration="none" x="4.5" fill="rgb(62, 20, 78)" font-weight="bold" font-size="9pt" font-family="Arial"  y="17">2&#160;</text><text text-decoration="none" x="14.5" fill="rgb(62, 20, 78)" font-weight="bold" font-size="9pt" font-family="Arial"  y="17">Seater</text><text text-decoration="none" x="52.5" fill="#4b4b4b" font-size="10pt" font-family="noto_regular"  y="17"></text></g></g><g id="s8y9mdljey"><g transform="translate(415.45 612.45)"><ellipse cx="25.864907920360565" cy="12.713240772485733" rx="25.864907920360565" ry="12.713240772485733" fill="rgba(203,169,215,1)" stroke="#91278f" stroke-width="1" stroke-linecap="round" stroke-linejoin="round"/></g><g transform="translate(425.81490792036055, 615.6632407724858) rotate(0, 15.5, 9.5)" width="31" height="19"><text text-decoration="none" x="2" fill="rgb(62, 20, 78)" font-weight="bold" font-size="9pt" font-family="Arial"  y="17">date</text><text text-decoration="none" x="29" fill="#4b4b4b" font-size="10pt" font-family="noto_regular"  y="17"></text></g></g><g id="2mtnyyhzg3"><g><path d="M 425.45,637.45 L 405,660" fill="none" stroke="#5e5ca7" stroke-width="1.5" stroke-linecap="round" stroke-linejoin="round"/></g></g><g id="77lzl4clfc"><g transform="translate(101.80000000000001 465) rotate(2.3947706393321132e-15)"><ellipse cx="42.508177638053894" cy="22.553353875875473" rx="42.508177638053894" ry="22.553353875875473" fill="rgba(203,169,215,1)" stroke="#91278f" stroke-width="1" stroke-linecap="round" stroke-linejoin="round"/></g><g transform="translate(114.3081776380539, 478.0533538758755) rotate(0, 30, 9.5)" width="60" height="19"><text text-decoration="none" x="3" fill="rgb(62, 20, 78)" font-weight="bold" font-size="9pt" font-family="Arial"  y="17">Roll&#160;</text><text text-decoration="none" x="29" fill="rgb(62, 20, 78)" font-weight="bold" font-size="9pt" font-family="Arial"  y="17">num</text><text text-decoration="none" x="57" fill="#4b4b4b" font-size="10pt" font-family="noto_regular"  y="17"></text></g></g><g id="8e6n2k7yzc"><g><path d="M 186.8,490 L 289.5,534.2" fill="none" stroke="#5e5ca7" stroke-width="1.5" stroke-linecap="round" stroke-linejoin="round"/></g></g><g id="y3h9jubjbh"><g transform="translate(90 515)"><ellipse cx="47.49420356750488" cy="13.158902138471603" rx="47.49420356750488" ry="13.158902138471603" fill="rgba(203,169,215,1)" stroke="#91278f" stroke-width="1" stroke-linecap="round" stroke-linejoin="round"/></g><g transform="translate(118.49420356750488, 518.6589021384716) rotate(0, 19, 9.5)" width="38" height="19"><text text-decoration="none" x="2" fill="rgb(62, 20, 78)" font-weight="bold" font-size="9pt" font-family="Arial"  y="17">name</text><text text-decoration="none" x="36" fill="#4b4b4b" font-size="10pt" font-family="noto_regular"  y="17"></text></g></g><g id="30o7bcxo2s"><g><path d="M 185,530 L 289.5,534.2" fill="none" stroke="#5e5ca7" stroke-width="1.5" stroke-linecap="round" stroke-linejoin="round"/></g></g><g id="srjoymlse6"><g><path d="M 835.7,617.1 L 804.95,656.45" fill="none" stroke="#5e5ca7" stroke-width="1.5" stroke-linecap="round" stroke-linejoin="round"/></g></g><g id="6lnfs3p7r2"><g><path d="M 911.15,738.4 L 804.95,696.45" fill="none" stroke="#5e5ca7" stroke-width="1.5" stroke-linecap="round" stroke-linejoin="round"/></g></g><g id="a4ijket1ns"><g><path d="M 925,680 L 864.95,676.45" fill="none" stroke="#5e5ca7" stroke-width="1.5" stroke-linecap="round" stroke-linejoin="round"/></g></g><g id="28bvqfpwkd"><g><path d="M 289.5,589.2 L 287.5,632.3" fill="none" stroke="#000000" stroke-width="1.5" stroke-linecap="round" stroke-linejoin="round"/></g></g><g id="3r9mijb85l"><g><path d="M 285.25,787 L 287.5,667.3" fill="none" stroke="#000000" stroke-width="1.5" stroke-linecap="round" stroke-linejoin="round"/></g></g><g id="1v42cotq6t"><g><path d="M 285.25,827 L 285.25,889.5" fill="none" stroke="#000000" stroke-width="1.5" stroke-linecap="round" stroke-linejoin="round"/></g></g><g id="9es05s45jq"><g><path d="M 413.5,909.5 L 320.25,909.5" fill="none" stroke="#000000" stroke-width="1.5" stroke-linecap="round" stroke-linejoin="round"/></g></g><g id="2ezdri131s"><g><path d="M 324.5,564.2 L 360,680" fill="none" stroke="#000000" stroke-width="1.5" stroke-linecap="round" stroke-linejoin="round"/></g></g><g id="2ocxwupnki"><g><path d="M 507.1,676.45 L 445,680" fill="none" stroke="#000000" stroke-width="1.5" stroke-linecap="round" stroke-linejoin="round"/></g></g><g id="1jm8dzortf"><g><path d="M 547.1,696.45 L 630,800" fill="none" stroke="#000000" stroke-width="1.5" stroke-linecap="round" stroke-linejoin="round"/></g></g><g id="2ff9co1rof"><g><path d="M 770,800 L 695,800" fill="none" stroke="#000000" stroke-width="1.5" stroke-linecap="round" stroke-linejoin="round"/></g></g><g id="1jnrpv7ic5"><g><path d="M 324.5,564.2 L 404,553" fill="none" stroke="#000000" stroke-width="1.5" stroke-linecap="round" stroke-linejoin="round"/></g></g><g id="3i4xdmzpeu"><g><path d="M 608.05,553 L 479,553" fill="none" stroke="#000000" stroke-width="1.5" stroke-linecap="round" stroke-linejoin="round"/></g></g><g id="g6vnjkh60a"><g><path d="M 683.05,553 L 758.95,553" fill="none" stroke="#000000" stroke-width="1.5" stroke-linecap="round" stroke-linejoin="round"/></g></g><g id="1hjorkg150"><g><path d="M 804.95,656.45 L 788.95,568" fill="none" stroke="#000000" stroke-width="1.5" stroke-linecap="round" stroke-linejoin="round"/></g></g><g id="2h4optmuzf"><g><path d="M 582.1,676.45 L 619.45,676.45" fill="none" stroke="#000000" stroke-width="1.5" stroke-linecap="round" stroke-linejoin="round"/></g></g><g id="yhkl5kitqc"><g><path d="M 739.95,676.45 L 684.45,676.45" fill="none" stroke="#000000" stroke-width="2" stroke-linecap="round" stroke-linejoin="round"/></g></g><g id="2j9vusshvn"><g transform="translate(844.05 524.5) rotate(-2.2379690979485314e-15)"><linearGradient id="8cb0f" x1="45.477727234363556" y1="-22.553353875875473" x2="45.477727234363556" y2="45.106707751750946" gradientUnits="userSpaceOnUse"><stop offset="0%" stop-color="rgba(255,255,255,1)"/><stop offset="100%" stop-color="rgba(229,212,235,1)"/></linearGradient><ellipse cx="45.477727234363556" cy="22.553353875875473" rx="45.477727234363556" ry="22.553353875875473" fill="url(#8cb0f)" stroke="#cba9d7" stroke-width="2" stroke-linecap="round" stroke-linejoin="round"/></g><g transform="translate(868.0277272343635, 537.5533538758755) rotate(0, 21.5, 9.5)" width="43" height="19"><text text-decoration="none" x="3" fill="rgb(62, 20, 78)" font-weight="bold" font-size="9pt" font-family="Arial"  y="17">Single</text><text text-decoration="none" x="40" fill="#4b4b4b" font-size="10pt" font-family="noto_regular"  y="17"></text></g></g><g id="2en47v8ttl"><g transform="translate(904.95 586.8)"><linearGradient id="afcfc" x1="47.53701528906822" y1="-30.68085479736328" x2="47.53701528906822" y2="61.36170959472656" gradientUnits="userSpaceOnUse"><stop offset="0%" stop-color="rgba(255,255,255,1)"/><stop offset="100%" stop-color="rgba(229,212,235,1)"/></linearGradient><ellipse cx="47.53701528906822" cy="30.68085479736328" rx="47.53701528906822" ry="30.68085479736328" fill="url(#afcfc)" stroke="#cba9d7" stroke-width="2" stroke-linecap="round" stroke-linejoin="round"/></g><g transform="translate(911.9870152890683, 607.9808547973632) rotate(0, 40.5, 9.5)" width="81" height="19"><text text-decoration="none" x="5" fill="rgb(62, 20, 78)" font-weight="bold" font-size="9pt" font-family="Arial"  y="17">Attachment</text><text text-decoration="none" x="76" fill="#4b4b4b" font-size="10pt" font-family="noto_regular"  y="17"></text></g></g><g id="ongwx0lcm8"><g><path d="M 879.05,569.5 L 870.7,587.1" fill="none" stroke="#5e5ca7" stroke-width="2" stroke-linecap="round" stroke-linejoin="round"/></g></g><g id="22boylec4s"><g><path d="M 904.95,616.8 L 880.7,602.1" fill="none" stroke="#5e5ca7" stroke-width="2" stroke-linecap="round" stroke-linejoin="round"/></g></g><g id="512zf8bn3u"><g transform="translate(459 798)"><ellipse cx="28.690803617239" cy="14.98688068985939" rx="28.690803617239" ry="14.98688068985939" fill="rgba(203,169,215,1)" stroke="#91278f" stroke-width="1" stroke-linecap="round" stroke-linejoin="round"/></g><g transform="translate(468.690803617239, 803.4868806898594) rotate(0, 19, 9.5)" width="38" height="19"><text text-decoration="none" x="2" fill="rgb(62, 20, 78)" font-weight="bold" font-size="9pt" font-family="Arial"  y="17">name</text><text text-decoration="none" x="36" fill="#4b4b4b" font-size="10pt" font-family="noto_regular"  y="17"></text></g></g><g id="4dx094qc64"><g transform="translate(462.45 739.5)"><linearGradient id="efdf5" x1="28.690565824508667" y1="-13.159102767705917" x2="28.690565824508667" y2="26.318205535411835" gradientUnits="userSpaceOnUse"><stop offset="0%" stop-color="rgba(255,255,255,1)"/><stop offset="100%" stop-color="rgba(229,212,235,1)"/></linearGradient><ellipse cx="28.690565824508667" cy="13.159102767705917" rx="28.690565824508667" ry="13.159102767705917" fill="url(#efdf5)" stroke="#cba9d7" stroke-width="2" stroke-linecap="round" stroke-linejoin="round"/></g><g transform="translate(470.1405658245087, 743.1591027677059) rotate(0, 21, 9.5)" width="42" height="19"><text text-decoration="none" x="2" fill="rgb(62, 20, 78)" font-weight="bold" font-size="9pt" font-family="Arial"  y="17">lname</text><text text-decoration="none" x="40" fill="#4b4b4b" font-size="10pt" font-family="noto_regular"  y="17"></text></g></g><g id="28rq6wqd03"><g transform="translate(530.45 772.5) rotate(-3.4173642964595548e-15)"><linearGradient id="c3d96" x1="29.78252810239792" y1="-22.553353875875473" x2="29.78252810239792" y2="45.106707751750946" gradientUnits="userSpaceOnUse"><stop offset="0%" stop-color="rgba(255,255,255,1)"/><stop offset="100%" stop-color="rgba(229,212,235,1)"/></linearGradient><ellipse cx="29.78252810239792" cy="22.553353875875473" rx="29.78252810239792" ry="22.553353875875473" fill="url(#c3d96)" stroke="#cba9d7" stroke-width="2" stroke-linecap="round" stroke-linejoin="round"/></g><g transform="translate(538.732528102398, 785.5533538758755) rotate(0, 21.5, 9.5)" width="43" height="19"><text text-decoration="none" x="2" fill="rgb(62, 20, 78)" font-weight="bold" font-size="9pt" font-family="Arial"  y="17">fname</text><text text-decoration="none" x="41" fill="#4b4b4b" font-size="10pt" font-family="noto_regular"  y="17"></text></g></g><g id="jtfbhjgtmd"><g><path d="M 492.45,764.5 L 494,798" fill="none" stroke="#5e5ca7" stroke-width="2" stroke-linecap="round" stroke-linejoin="round"/></g></g><g id="1twpq2hrnk"><g><path d="M 530.45,797.5 L 514,813" fill="none" stroke="#5e5ca7" stroke-width="2" stroke-linecap="round" stroke-linejoin="round"/></g></g><g id="1tz4rqgr3d"><g><path d="M 469,828 L 453.5,889.5" fill="none"/></g></g><g id="z0pf9jd0yl"><g transform="translate(1278.4 815.85)"><path d="M 0.14635124802589417,NaN L 46.68604812026024,NaN L 46.68604812026024,NaN L 0.14635124802589417,NaN Z" fill="rgb(246, 246, 246)" stroke="rgb(98, 98, 98)" stroke-width="1.5" vector-effect="non-scaling-stroke" stroke-dasharray="10 7"/></g></g><g id="1wzu69ikk6"><g transform="translate(685 1000)"><path d="M 0,0 L 100,0 L 100,50 L 0,50 L 0,0 Z M 5,5 L 95,5 L 95,45 L 5,45 L 5,5 Z" fill="rgba(255,255,255,1)" stroke="#75c19b" stroke-width="1.5" stroke-linecap="round" stroke-linejoin="round"/></g><g transform="translate(720, 1015.5) rotate(0, 15, 9.5)" width="30" height="19"><text text-decoration="none" x="2" fill="rgb(75, 75, 75)" font-size="10pt" font-family="Lato"  y="17">Girls</text><text text-decoration="none" x="28" fill="#4b4b4b" font-size="10pt" font-family="noto_regular"  y="17"></text></g></g><g id="2p4w0tpusp"><g transform="translate(850 1000)"><path d="M 0,0 L 100,0 L 100,50 L 0,50 L 0,0 Z M 5,5 L 95,5 L 95,45 L 5,45 L 5,5 Z" fill="rgba(255,255,255,1)" stroke="#75c19b" stroke-width="1.5" stroke-linecap="round" stroke-linejoin="round"/></g><g transform="translate(884, 1015.5) rotate(0, 16, 9.5)" width="32" height="19"><text text-decoration="none" x="1.5" fill="rgb(75, 75, 75)" font-size="10pt" font-family="Lato"  y="17">Boys</text><text text-decoration="none" x="30.5" fill="#4b4b4b" font-size="10pt" font-family="noto_regular"  y="17"></text></g></g><g id="2q4biy75d6"><g transform="translate(485 1025)"><ellipse cx="47.49999940395355" cy="17.499999701976776" rx="47.49999940395355" ry="17.499999701976776" fill="rgba(255,255,255,1)" stroke="#f6902a" stroke-width="1.5" stroke-linecap="round" stroke-linejoin="round"/></g><g transform="translate(494.49999940395355, 1032.9999997019768) rotate(0, 38, 9.5)" width="76" height="19"><text text-decoration="none" x="2.5" fill="rgb(75, 75, 75)" font-size="10pt" font-family="Lato"  y="17">Host_Name</text><text text-decoration="none" x="73.5" fill="#4b4b4b" font-size="10pt" font-family="noto_regular"  y="17"></text></g></g><g id="raqkyp1lzh"><g><path d="M 680,1020 L 580,1035" fill="none" stroke="#a0a0a0" stroke-width="1.5" stroke-linecap="round" stroke-linejoin="round"/></g></g><g id="2qfclhlha0"><g transform="translate(515 1085)"><ellipse cx="50" cy="25" rx="50" ry="25" fill="rgba(255,255,255,1)" stroke="#f6902a" stroke-width="1.5" stroke-linecap="round" stroke-linejoin="round"/></g><g transform="translate(539, 1100.5) rotate(0, 26, 9.5)" width="52" height="19"><text text-decoration="none" x="2" fill="rgb(75, 75, 75)" font-size="10pt" font-family="Lato"  y="17">Address</text><text text-decoration="none" x="50" fill="#4b4b4b" font-size="10pt" font-family="noto_regular"  y="17"></text></g></g><g id="1gio26ryrm"><g><path d="M 685,1035 L 590,1090" fill="none" stroke="#a0a0a0" stroke-width="1.5" stroke-linecap="round" stroke-linejoin="round"/></g></g><g id="2m2h5piybq"><g transform="translate(630 1105)"><ellipse cx="50" cy="25" rx="50" ry="25" fill="rgba(255,255,255,1)" stroke="#f6902a" stroke-width="1.5" stroke-linecap="round" stroke-linejoin="round"/></g><g transform="translate(640.5, 1120.5) rotate(0, 39.5, 9.5)" width="79" height="19"><text text-decoration="none" x="2.5" fill="rgb(75, 75, 75)" font-size="10pt" font-family="Lato"  y="17">Contact_No.</text><text text-decoration="none" x="76.5" fill="#4b4b4b" font-size="10pt" font-family="noto_regular"  y="17"></text></g></g><g id="2c0i6er911"><g><path d="M 710,1050 L 685,1100" fill="none" stroke="#a0a0a0" stroke-width="1.5" stroke-linecap="round" stroke-linejoin="round"/></g></g><g id="d90z8hl6yd"><g transform="translate(905 1165)"><ellipse cx="50" cy="25" rx="50" ry="25" fill="rgba(255,255,255,1)" stroke="#f6902a" stroke-width="1.5" stroke-linecap="round" stroke-linejoin="round"/></g><g transform="translate(929, 1180.5) rotate(0, 26, 9.5)" width="52" height="19"><text text-decoration="none" x="2" fill="rgb(75, 75, 75)" font-size="10pt" font-family="Lato"  y="17">Address</text><text text-decoration="none" x="50" fill="#4b4b4b" font-size="10pt" font-family="noto_regular"  y="17"></text></g></g><g id="2abdghndta"><g transform="translate(985 1100)"><ellipse cx="50" cy="25" rx="50" ry="25" fill="rgba(255,255,255,1)" stroke="#f6902a" stroke-width="1.5" stroke-linecap="round" stroke-linejoin="round"/></g><g transform="translate(995.5, 1115.5) rotate(0, 39.5, 9.5)" width="79" height="19"><text text-decoration="none" x="2.5" fill="rgb(75, 75, 75)" font-size="10pt" font-family="Lato"  y="17">Contact_No.</text><text text-decoration="none" x="76.5" fill="#4b4b4b" font-size="10pt" font-family="noto_regular"  y="17"></text></g></g><g id="7yq4sh2gjn"><g transform="translate(765 1145)"><ellipse cx="50" cy="25" rx="50" ry="25" fill="rgba(255,255,255,1)" stroke="#f6902a" stroke-width="1.5" stroke-linecap="round" stroke-linejoin="round"/></g><g transform="translate(777, 1160.5) rotate(0, 38, 9.5)" width="76" height="19"><text text-decoration="none" x="2.5" fill="rgb(75, 75, 75)" font-size="10pt" font-family="Lato"  y="17">Host_Name</text><text text-decoration="none" x="73.5" fill="#4b4b4b" font-size="10pt" font-family="noto_regular"  y="17"></text></g></g><g id="7m6dh7xwsj"><g><path d="M 895,1050 L 825,1140" fill="none" stroke="#a0a0a0" stroke-width="1.5" stroke-linecap="round" stroke-linejoin="round"/></g></g><g id="2nx76n4m21"><g><path d="M 884.5,979.75 L 884.5,979.75" fill="none" stroke="#a0a0a0" stroke-width="1.5" stroke-linecap="round" stroke-linejoin="round"/></g></g><g id="2nfcsb340i"><g><path d="M 895,1050 L 950,1165" fill="none" stroke="#a0a0a0" stroke-width="1.5" stroke-linecap="round" stroke-linejoin="round"/></g></g><g id="4xew3ecxz1"><g><path d="M 946,998 L 946,998" fill="none" stroke="#a0a0a0" stroke-width="1.5" stroke-linecap="round" stroke-linejoin="round"/></g></g><g id="13twdsrhg8"><g><path d="M 895,1050 L 1025,1100" fill="none" stroke="#a0a0a0" stroke-width="1.5" stroke-linecap="round" stroke-linejoin="round"/></g></g><g id="1hktqfrcdt"><g transform="translate(745 875)"><path d="M 65,0 L 130,30 L 65,60 L 0,30 L 65,0 Z M 65,5 L 119.16666666666667,30 L 65,55 L 10.833333333333332,30 L 65,5 Z" fill="rgba(255,255,255,1)" stroke="#75c19b" stroke-width="1.5" stroke-linecap="round" stroke-linejoin="round"/></g><g transform="translate(787.5, 895.5) rotate(0, 22.5, 9.5)" width="45" height="19"><text text-decoration="none" x="2" fill="rgb(75, 75, 75)" font-size="10pt" font-family="Lato"  y="17">Can&#160;</text><text text-decoration="none" x="28" fill="rgb(75, 75, 75)" font-size="10pt" font-family="Lato"  y="17">be</text><text text-decoration="none" x="43" fill="#4b4b4b" font-size="10pt" font-family="noto_regular"  y="17"></text></g></g><g id="2fc7n3tdwj"><g><path d="M 810,875 L 810,820" fill="none" stroke="#75c19b" stroke-width="1.5" stroke-linecap="round" stroke-linejoin="round"/></g></g><g id="1zxkqf0whj"><g><path d="M 807,934 L 745,1000" fill="none" stroke="#a0a0a0" stroke-width="1.5" stroke-linecap="round" stroke-linejoin="round"/></g></g><g id="14qckpjt91"><g><path d="M 809,934 L 889.25,999.25" fill="none" stroke="#a0a0a0" stroke-width="1.5" stroke-linecap="round" stroke-linejoin="round"/></g></g><g id="2bobytdd4b"><g transform="translate(55 895)"><ellipse cx="62.06628054380417" cy="28.64897918701172" rx="62.06628054380417" ry="28.64897918701172" fill="rgba(203,169,215,1)" stroke="#91278f" stroke-width="1" stroke-linecap="round" stroke-linejoin="round"/></g><g transform="translate(76.06628054380417, 914.1489791870117) rotate(0, 41, 9.5)" width="82" height="19"><text text-decoration="none" x="5.5" fill="rgb(62, 20, 78)" font-weight="bold" font-size="9pt" font-family="Arial"  y="17">Contact_No.</text><text text-decoration="none" x="76.5" fill="#4b4b4b" font-size="10pt" font-family="noto_regular"  y="17"></text></g></g><g id="1ibkp575i8"><g><path d="M 155,900 L 244.25,810" fill="none" stroke="#5e5ca7" stroke-width="1.5" stroke-linecap="round" stroke-linejoin="round"/></g></g><g id="p5ow8pyi00"><g transform="translate(120.05000000000001 400)"><ellipse cx="42.51009804010391" cy="19.99406960606575" rx="42.51009804010391" ry="19.99406960606575" fill="rgba(203,169,215,1)" stroke="#91278f" stroke-width="1" stroke-linecap="round" stroke-linejoin="round"/></g><g transform="translate(126.56009804010392, 410.49406960606575) rotate(0, 36, 9.5)" width="72" height="19"><text text-decoration="none" x="4.5" fill="rgb(62, 20, 78)" font-weight="bold" font-size="9pt" font-family="Arial"  y="17">Phone_No.</text><text text-decoration="none" x="67.5" fill="#4b4b4b" font-size="10pt" font-family="noto_regular"  y="17"></text></g></g><g id="2h0airb671"><g><path d="M 190.05,435 L 287.5,531.2" fill="none" stroke="#5e5ca7" stroke-width="1.5" stroke-linecap="round" stroke-linejoin="round"/></g></g></svg>